<mxfile host="Electron" agent="Mozilla/5.0 (Windows NT 10.0; Win64; x64) AppleWebKit/537.36 (KHTML, like Gecko) draw.io/22.1.2 Chrome/114.0.5735.289 Electron/25.9.4 Safari/537.36" modified="2025-06-04T22:16:33.226Z" version="22.1.2" etag="-YZR__JsJLIyyTQYjWGw" type="device">
  <diagram name="Страница — 1" id="AWUKQOH00eJuJ4KNT10a">
    <mxGraphModel dx="1382" dy="683" grid="0" gridSize="10" guides="1" tooltips="1" connect="1" arrows="1" fold="1" page="1" pageScale="1" pageWidth="827" pageHeight="1169" math="0" shadow="0">
      <root>
        <mxCell id="0" />
        <mxCell id="1" parent="0" />
        <mxCell id="jAOJMR88__807RaMbiv5-2" value="Авторизированный&lt;br&gt;пользователь" style="shape=umlActor;verticalLabelPosition=bottom;verticalAlign=top;html=1;" parent="1" vertex="1">
          <mxGeometry x="207" y="447" width="30" height="60" as="geometry" />
        </mxCell>
        <mxCell id="jAOJMR88__807RaMbiv5-3" value="Администратор&lt;div&gt;&lt;br&gt;&lt;/div&gt;" style="shape=umlActor;verticalLabelPosition=bottom;verticalAlign=top;html=1;" parent="1" vertex="1">
          <mxGeometry x="117" y="422" width="30" height="60" as="geometry" />
        </mxCell>
        <mxCell id="jAOJMR88__807RaMbiv5-4" value="" style="rounded=0;whiteSpace=wrap;html=1;" parent="1" vertex="1">
          <mxGeometry x="287" y="322" width="400" height="260" as="geometry" />
        </mxCell>
        <mxCell id="jAOJMR88__807RaMbiv5-7" value="Сменить имя" style="ellipse;whiteSpace=wrap;html=1;" parent="1" vertex="1">
          <mxGeometry x="447" y="337" width="110" height="50" as="geometry" />
        </mxCell>
        <mxCell id="jAOJMR88__807RaMbiv5-8" value="Сменить email" style="ellipse;whiteSpace=wrap;html=1;" parent="1" vertex="1">
          <mxGeometry x="547" y="422" width="110" height="50" as="geometry" />
        </mxCell>
        <mxCell id="jAOJMR88__807RaMbiv5-9" value="Сменить пароль" style="ellipse;whiteSpace=wrap;html=1;" parent="1" vertex="1">
          <mxGeometry x="447" y="507" width="110" height="50" as="geometry" />
        </mxCell>
        <mxCell id="jAOJMR88__807RaMbiv5-16" value="Управление профилем" style="ellipse;whiteSpace=wrap;html=1;" parent="1" vertex="1">
          <mxGeometry x="337" y="417" width="90" height="60" as="geometry" />
        </mxCell>
        <mxCell id="jAOJMR88__807RaMbiv5-18" value="" style="endArrow=classic;html=1;rounded=0;exitX=1;exitY=0.5;exitDx=0;exitDy=0;entryX=0.5;entryY=1;entryDx=0;entryDy=0;" parent="1" source="jAOJMR88__807RaMbiv5-16" target="jAOJMR88__807RaMbiv5-7" edge="1">
          <mxGeometry width="50" height="50" relative="1" as="geometry">
            <mxPoint x="427" y="487" as="sourcePoint" />
            <mxPoint x="477" y="437" as="targetPoint" />
          </mxGeometry>
        </mxCell>
        <mxCell id="jAOJMR88__807RaMbiv5-25" value="&amp;lt;&amp;lt;include&amp;gt;&amp;gt;" style="edgeLabel;html=1;align=center;verticalAlign=middle;resizable=0;points=[];" parent="jAOJMR88__807RaMbiv5-18" vertex="1" connectable="0">
          <mxGeometry x="0.0717" relative="1" as="geometry">
            <mxPoint as="offset" />
          </mxGeometry>
        </mxCell>
        <mxCell id="jAOJMR88__807RaMbiv5-19" value="" style="endArrow=classic;html=1;rounded=0;exitX=1;exitY=0.5;exitDx=0;exitDy=0;entryX=0;entryY=0.5;entryDx=0;entryDy=0;" parent="1" source="jAOJMR88__807RaMbiv5-16" target="jAOJMR88__807RaMbiv5-8" edge="1">
          <mxGeometry width="50" height="50" relative="1" as="geometry">
            <mxPoint x="417" y="507" as="sourcePoint" />
            <mxPoint x="472" y="447" as="targetPoint" />
          </mxGeometry>
        </mxCell>
        <mxCell id="jAOJMR88__807RaMbiv5-26" value="&amp;lt;&amp;lt;include&amp;gt;&amp;gt;" style="edgeLabel;html=1;align=center;verticalAlign=middle;resizable=0;points=[];" parent="jAOJMR88__807RaMbiv5-19" vertex="1" connectable="0">
          <mxGeometry x="0.1149" y="-1" relative="1" as="geometry">
            <mxPoint as="offset" />
          </mxGeometry>
        </mxCell>
        <mxCell id="jAOJMR88__807RaMbiv5-20" value="" style="endArrow=classic;html=1;rounded=0;exitX=1;exitY=0.5;exitDx=0;exitDy=0;entryX=0.5;entryY=0;entryDx=0;entryDy=0;" parent="1" source="jAOJMR88__807RaMbiv5-16" target="jAOJMR88__807RaMbiv5-9" edge="1">
          <mxGeometry width="50" height="50" relative="1" as="geometry">
            <mxPoint x="427" y="496.31" as="sourcePoint" />
            <mxPoint x="492" y="496.31" as="targetPoint" />
          </mxGeometry>
        </mxCell>
        <mxCell id="jAOJMR88__807RaMbiv5-27" value="&amp;lt;&amp;lt;include&amp;gt;&amp;gt;" style="edgeLabel;html=1;align=center;verticalAlign=middle;resizable=0;points=[];" parent="jAOJMR88__807RaMbiv5-20" vertex="1" connectable="0">
          <mxGeometry x="0.1307" y="-1" relative="1" as="geometry">
            <mxPoint as="offset" />
          </mxGeometry>
        </mxCell>
        <mxCell id="jAOJMR88__807RaMbiv5-21" value="" style="endArrow=none;html=1;rounded=0;exitX=0.5;exitY=0.5;exitDx=0;exitDy=0;exitPerimeter=0;entryX=0;entryY=0.5;entryDx=0;entryDy=0;" parent="1" source="jAOJMR88__807RaMbiv5-2" target="jAOJMR88__807RaMbiv5-16" edge="1">
          <mxGeometry width="50" height="50" relative="1" as="geometry">
            <mxPoint x="577" y="477" as="sourcePoint" />
            <mxPoint x="627" y="427" as="targetPoint" />
          </mxGeometry>
        </mxCell>
        <mxCell id="jAOJMR88__807RaMbiv5-23" value="" style="endArrow=none;html=1;rounded=0;entryX=0.5;entryY=0.5;entryDx=0;entryDy=0;entryPerimeter=0;exitX=0.5;exitY=0.5;exitDx=0;exitDy=0;exitPerimeter=0;" parent="1" source="jAOJMR88__807RaMbiv5-3" target="jAOJMR88__807RaMbiv5-2" edge="1">
          <mxGeometry width="50" height="50" relative="1" as="geometry">
            <mxPoint x="237" y="567" as="sourcePoint" />
            <mxPoint x="287" y="517" as="targetPoint" />
          </mxGeometry>
        </mxCell>
      </root>
    </mxGraphModel>
  </diagram>
</mxfile>
